<?xml version="1.0" encoding="UTF-8" standalone="no"?>
<!DOCTYPE svg PUBLIC "-//W3C//DTD SVG 1.1//EN" "http://www.w3.org/Graphics/SVG/1.1/DTD/svg11.dtd">
<svg width="100%" height="100%" viewBox="0 0 240 240" version="1.1" xmlns="http://www.w3.org/2000/svg" xmlns:xlink="http://www.w3.org/1999/xlink" xml:space="preserve" xmlns:serif="http://www.serif.com/" style="fill-rule:evenodd;clip-rule:evenodd;stroke-linejoin:round;stroke-miterlimit:2;">
    <g transform="matrix(1,0,0,1,4.29914,3.85266)">
        <circle cx="115.701" cy="116.147" r="90.609" style="fill:rgb(235,235,235);"/>
    </g>
    <path d="M120,13C179.055,13 227,60.945 227,120C227,179.055 179.055,227 120,227C60.945,227 13,179.055 13,120C13,60.945 60.945,13 120,13ZM120,47C79.71,47 47,79.71 47,120C47,160.29 79.71,193 120,193C160.29,193 193,160.29 193,120C193,79.71 160.29,47 120,47Z" style="fill:rgb(238,240,242);"/>
    <g transform="matrix(-3.82857e-16,-1,1,-3.82857e-16,4.26326e-14,240)">
        <path d="M14.54,101.841L14.541,101.831C23.187,51.421 67.139,13 120,13C179.055,13 227,60.945 227,120C227,179.055 179.055,227 120,227C60.945,227 13,179.055 13,120C13,113.811 13.528,107.743 14.54,101.841ZM48.052,107.578L48.051,107.585C47.359,111.62 47,115.768 47,120C47,160.29 79.71,193 120,193C160.29,193 193,160.29 193,120C193,79.71 160.29,47 120,47C83.943,47 53.949,73.193 48.052,107.578Z" style="fill:rgb(34,197,94);"/>
        <g transform="matrix(1.00052,0,0,1,-0.0156662,-6.62052e-15)">
            <path d="M120,47.004L119.987,47.004C84.495,47.011 54.878,72.39 48.34,105.983L14.976,99.482C24.561,50.238 67.952,13.005 119.981,12.996L120,12.996L120,47.004Z" style="fill:rgb(239,68,68);"/>
        </g>
    </g>
    <g transform="matrix(2.17089,0,0,2.17089,120.338,163.405)">
        <g transform="matrix(58,0,0,58,-25.7856,0)">
            <path d="M0.498,-0.167C0.498,-0.218 0.515,-0.261 0.551,-0.296C0.586,-0.332 0.629,-0.349 0.679,-0.349C0.729,-0.349 0.772,-0.331 0.808,-0.296C0.843,-0.26 0.861,-0.218 0.861,-0.167C0.861,-0.117 0.843,-0.075 0.808,-0.039C0.772,-0.004 0.729,0.014 0.679,0.014C0.629,0.014 0.586,-0.004 0.551,-0.039C0.515,-0.075 0.498,-0.117 0.498,-0.167ZM0.076,-0.395C0.041,-0.43 0.023,-0.473 0.023,-0.523C0.023,-0.573 0.041,-0.616 0.076,-0.651C0.112,-0.687 0.154,-0.705 0.205,-0.705C0.255,-0.705 0.298,-0.687 0.333,-0.651C0.368,-0.616 0.386,-0.573 0.386,-0.523C0.386,-0.473 0.369,-0.43 0.333,-0.395C0.298,-0.359 0.255,-0.341 0.205,-0.341C0.154,-0.341 0.112,-0.359 0.076,-0.395ZM0.281,0.019L0.206,0.019L0.602,-0.708L0.676,-0.708L0.281,0.019ZM0.625,-0.113C0.639,-0.097 0.658,-0.09 0.679,-0.09C0.701,-0.09 0.719,-0.097 0.734,-0.113C0.749,-0.128 0.757,-0.146 0.757,-0.167C0.757,-0.189 0.749,-0.207 0.734,-0.222C0.719,-0.238 0.701,-0.245 0.679,-0.245C0.658,-0.245 0.639,-0.238 0.624,-0.222C0.609,-0.207 0.602,-0.189 0.602,-0.167C0.602,-0.146 0.609,-0.128 0.625,-0.113ZM0.15,-0.468C0.165,-0.453 0.183,-0.445 0.205,-0.445C0.226,-0.445 0.244,-0.453 0.26,-0.468C0.275,-0.483 0.282,-0.501 0.282,-0.523C0.282,-0.544 0.275,-0.563 0.26,-0.578C0.244,-0.593 0.226,-0.601 0.205,-0.601C0.183,-0.601 0.165,-0.593 0.15,-0.578C0.135,-0.563 0.127,-0.544 0.127,-0.523C0.127,-0.501 0.135,-0.483 0.15,-0.468Z" style="fill:rgb(31,41,55);fill-rule:nonzero;"/>
        </g>
    </g>
</svg>
