<svg xmlns="http://www.w3.org/2000/svg" xml:space="preserve" style="fill-rule:evenodd;clip-rule:evenodd;stroke-linejoin:round;stroke-miterlimit:2" viewBox="0 0 410 410" width="410" height="410"><path d="M0 0h410v410H0z" style="fill:#3178c6;fill-rule:nonzero"></path><path d="M.001.221C.101.19.166.114.166-.034v-.51H.088v.508c0 .135-.053.171-.114.192zm.066-.924c0 .032.024.056.056.056A.055.055 0 0 0 .18-.703.055.055 0 0 0 .123-.76a.055.055 0 0 0-.056.057" style="fill:#fff;fill-rule:nonzero" transform="translate(165.244 349.598)scale(113.22244)"></path><path d="M.474-.52a.4.4 0 0 0-.155-.029c-.18 0-.265.123-.265.299 0 .186.094.26.206.26a.22.22 0 0 0 .134-.042h.004v.226h.076zm-.167.039q.055 0 .09.016v.354a.15.15 0 0 1-.115.053C.207-.058.133-.1.133-.26c0-.146.068-.221.174-.221" style="fill:#fff;fill-rule:nonzero" transform="translate(193.89 349.598)scale(113.22244)"></path><path d="M.33-.677h.029L.114 0H.085zm.07 0h.029L.185 0h-.03zm-.397 0h.286L.044 0H.015l.184-.509H.003v-.027h.205l.016-.043H.003v-.027h.231L.25-.649H.003z" style="fill:#f7df1e;fill-rule:nonzero" transform="translate(256.955 349.598)scale(126.38784)"></path><path d="M.289-.29a.1.1 0 0 1-.06-.016.1.1 0 0 1-.042-.043.1.1 0 0 1-.017-.06.1.1 0 0 1 .017-.06.1.1 0 0 1 .042-.042.113.113 0 0 1 .12 0q.028.015.043.042a.1.1 0 0 1 .016.06.1.1 0 0 1-.016.06.1.1 0 0 1-.043.043.1.1 0 0 1-.06.016m0-.21a.09.09 0 0 0-.079.045.1.1 0 0 0-.013.046q0 .025.013.047a.1.1 0 0 0 .033.032.1.1 0 0 0 .046.013.1.1 0 0 0 .046-.013.1.1 0 0 0 .034-.032.1.1 0 0 0 0-.093.1.1 0 0 0-.034-.033A.1.1 0 0 0 .289-.5m0 .279a.19.19 0 0 1-.162-.093.2.2 0 0 1-.025-.095.18.18 0 0 1 .093-.161.2.2 0 0 1 .094-.026q.05 0 .095.026a.2.2 0 0 1 .067.067.18.18 0 0 1 0 .189.189.189 0 0 1-.162.093m0-.348a.159.159 0 0 0-.138.08.15.15 0 0 0-.022.08q0 .044.022.081a.16.16 0 0 0 .057.057.15.15 0 0 0 .081.022.15.15 0 0 0 .081-.022.16.16 0 0 0 .057-.057.15.15 0 0 0 .022-.081.15.15 0 0 0-.022-.08.16.16 0 0 0-.138-.08m-.073.407A.26.26 0 0 1 .057-.3a.25.25 0 0 1 .011-.237.25.25 0 0 1 .092-.092.25.25 0 0 1 .259 0 .254.254 0 0 1 .113.304.3.3 0 0 1-.038.072l-.002.002-.001.001-.001.001L.296 0H.262l.137-.176a.3.3 0 0 1-.064.02L.213 0H.179l.118-.152H.29L.247-.155.125 0H.091zM.29-.637q-.063 0-.116.032a.2.2 0 0 0-.082.082.227.227 0 0 0 .198.344.23.23 0 0 0 .197-.344.2.2 0 0 0-.082-.082.2.2 0 0 0-.115-.032" style="fill:#f7df1e;fill-rule:nonzero" transform="translate(305.955 349.598)scale(131.654)"></path></svg>