<svg xmlns="http://www.w3.org/2000/svg" xml:space="preserve" style="fill-rule:evenodd;clip-rule:evenodd;stroke-linejoin:round;stroke-miterlimit:2" viewBox="0 0 3500 820">
  <path d="M92.375 230.65H52.019a1.897 1.897 0 0 0-1.886 1.886v19.731a1.9 1.9 0 0 0 1.886 1.889h15.743v24.513s-3.535 1.206-13.308 1.206c-11.53 0-27.637-4.214-27.637-39.632 0-35.425 16.772-40.087 32.518-40.087 13.63 0 19.502 2.401 23.238 3.556 1.174.36 2.26-.808 2.26-1.851l4.502-19.063c0-.487-.165-1.075-.721-1.474-1.517-1.082-10.774-6.262-34.16-6.262-26.941 0-54.576 11.463-54.576 66.562 0 55.103 31.64 63.313 58.302 63.313 22.076 0 35.468-9.434 35.468-9.434.552-.306.612-1.077.612-1.431v-61.537c0-1.04-.844-1.885-1.885-1.885m207.979-48.986v-.016a1.89 1.89 0 0 0-1.873-1.88h-22.724a1.9 1.9 0 0 0-1.882 1.889v.007l.006 43.913h-35.419V181.65a1.89 1.89 0 0 0-1.875-1.882h-22.722a1.895 1.895 0 0 0-1.877 1.896v118.904c0 1.048.843 1.901 1.877 1.901h22.722c1.039 0 1.875-.854 1.875-1.901v-50.86h35.419l-.062 50.86c0 1.048.844 1.901 1.883 1.901h22.777c1.041 0 1.873-.854 1.875-1.901zm-165.1 15.604c0-8.183-6.56-14.795-14.653-14.795-8.085 0-14.65 6.612-14.65 14.795 0 8.173 6.565 14.802 14.65 14.802 8.093 0 14.653-6.629 14.653-14.802m-1.625 78.218V220.6a1.9 1.9 0 0 0-1.88-1.895h-22.651c-1.039 0-1.969 1.072-1.969 2.115v78.634c0 2.312 1.44 2.998 3.304 2.998h20.408c2.239 0 2.788-1.1 2.788-3.034zm253.081-56.602h-22.549c-1.034 0-1.876.852-1.876 1.901v58.302s-5.729 4.192-13.859 4.192-10.287-3.689-10.287-11.65v-50.844c0-1.049-.841-1.901-1.875-1.901h-22.886c-1.032 0-1.879.852-1.879 1.901v54.693c0 23.646 13.179 29.431 31.31 29.431 14.873 0 26.864-8.216 26.864-8.216s.571 4.329.829 4.843c.259.512.932 1.029 1.659 1.029l14.56-.064c1.032 0 1.879-.854 1.879-1.898l-.008-79.817c0-1.05-.843-1.902-1.882-1.902m52.735 64.323c-7.821-.238-13.126-3.788-13.126-3.788v-37.653s5.233-3.208 11.654-3.782c8.12-.727 15.944 1.726 15.944 21.095.001 20.426-3.53 24.457-14.472 24.128m8.894-66.993c-12.807 0-21.518 5.714-21.518 5.714v-40.263c0-1.05-.839-1.897-1.875-1.897h-22.787a1.896 1.896 0 0 0-1.878 1.887v118.913c0 1.048.842 1.901 1.881 1.901h15.811c.711 0 1.25-.367 1.648-1.009.393-.639.96-5.482.96-5.482s9.318 8.83 26.957 8.83c20.708 0 32.584-10.504 32.584-47.154s-18.967-41.44-31.783-41.44m-249.403 2.481h-17.045l-.026-22.519c0-.852-.439-1.278-1.424-1.278h-23.228c-.903 0-1.388.398-1.388 1.265v23.271s-11.64 2.809-12.427 3.037a1.89 1.89 0 0 0-1.361 1.812v14.623c0 1.052.84 1.898 1.879 1.898h11.909v35.178c0 26.13 18.328 28.697 30.696 28.697 5.651 0 12.411-1.814 13.527-2.228.675-.248 1.067-.947 1.067-1.705l.019-16.086c0-1.05-.886-1.897-1.884-1.897-.993 0-3.534.404-6.15.404-8.372 0-11.209-3.893-11.209-8.932l-.001-33.432h17.046c1.039 0 1.88-.847 1.88-1.898v-18.326a1.893 1.893 0 0 0-1.88-1.884" style="fill:#e2e2e2;fill-rule:nonzero" transform="translate(974.94 -839.199)scale(5.205)"/>
  <path d="M127.505 0C57.095 0 0 57.085 0 127.505c0 56.336 36.534 104.13 87.196 120.99 6.372 1.18 8.712-2.766 8.712-6.134 0-3.04-.119-13.085-.173-23.739-35.473 7.713-42.958-15.044-42.958-15.044-5.8-14.738-14.157-18.656-14.157-18.656-11.568-7.914.872-7.752.872-7.752 12.804.9 19.546 13.14 19.546 13.14 11.372 19.493 29.828 13.857 37.104 10.6 1.144-8.242 4.449-13.866 8.095-17.05-28.32-3.225-58.092-14.158-58.092-63.014 0-13.92 4.981-25.295 13.138-34.224-1.324-3.212-5.688-16.18 1.235-33.743 0 0 10.707-3.427 35.073 13.07 10.17-2.826 21.078-4.242 31.914-4.29 10.836.048 21.752 1.464 31.942 4.29 24.337-16.497 35.029-13.07 35.029-13.07 6.94 17.563 2.574 30.531 1.25 33.743 8.175 8.929 13.122 20.303 13.122 34.224 0 48.972-29.828 59.756-58.22 62.912 4.573 3.957 8.648 11.717 8.648 23.612 0 17.06-.148 30.791-.148 34.991 0 3.393 2.295 7.369 8.759 6.117 50.634-16.879 87.122-64.656 87.122-120.973C255.009 57.085 197.922 0 127.505 0" style="fill:#e2e2e2;fill-rule:nonzero" transform="translate(28.199 18.364)scale(3.09396)"/>
  <path d="M47.755 181.634c-.28.633-1.278.823-2.185.389-.925-.416-1.445-1.28-1.145-1.916.275-.652 1.273-.834 2.196-.396.927.415 1.455 1.287 1.134 1.923m6.272 5.596c-.608.564-1.797.302-2.604-.589-.834-.889-.99-2.077-.373-2.65.627-.563 1.78-.3 2.616.59.834.899.996 2.08.36 2.65m4.304 7.159c-.782.543-2.06.034-2.849-1.1-.781-1.133-.781-2.493.017-3.038.792-.545 2.05-.055 2.85 1.07.78 1.153.78 2.513-.019 3.069m7.277 8.292c-.699.77-2.187.564-3.277-.488-1.114-1.028-1.425-2.487-.724-3.258.707-.772 2.204-.555 3.302.488 1.107 1.026 1.445 2.496.7 3.258m9.403 2.8c-.307.998-1.741 1.452-3.185 1.028-1.442-.437-2.386-1.607-2.095-2.616.3-1.005 1.74-1.478 3.195-1.024 1.44.435 2.386 1.596 2.086 2.612m10.703 1.187c.036 1.052-1.189 1.924-2.705 1.943-1.525.033-2.758-.818-2.774-1.852 0-1.062 1.197-1.926 2.721-1.951 1.516-.03 2.758.815 2.758 1.86m10.514-.403c.182 1.026-.872 2.08-2.377 2.36-1.48.27-2.85-.363-3.039-1.38-.184-1.052.89-2.105 2.367-2.378 1.508-.262 2.857.355 3.049 1.398" style="fill:#e2e2e2;fill-rule:nonzero" transform="translate(28.199 18.364)scale(3.09396)"/>
</svg>